<?xml version="1.0" standalone="no"?>
<!DOCTYPE svg PUBLIC "-//W3C//DTD SVG 20010904//EN"
 "http://www.w3.org/TR/2001/REC-SVG-20010904/DTD/svg10.dtd">
<svg version="1.0" xmlns="http://www.w3.org/2000/svg"
 width="700.000000pt" height="700.000000pt" viewBox="0 0 700.000000 700.000000"
 preserveAspectRatio="xMidYMid meet">
<metadata>
Created by potrace 1.14, written by Peter Selinger 2001-2017
</metadata>
<g transform="translate(0.000000,700.000000) scale(0.100000,-0.100000)"
fill="#000000" stroke="none">
<path d="M3265 6834 c-349 -35 -538 -72 -808 -160 -1097 -358 -1942 -1277
-2207 -2398 -66 -282 -85 -451 -85 -776 1 -327 19 -496 85 -777 144 -609 474
-1188 926 -1623 656 -632 1515 -964 2424 -937 496 15 926 121 1365 337 379
186 702 424 977 721 484 522 775 1143 874 1864 26 184 26 646 0 830 -102 744
-410 1385 -917 1910 -525 543 -1217 889 -1979 990 -118 16 -559 29 -655 19z
m633 -148 c593 -77 1132 -305 1603 -677 134 -105 403 -374 508 -508 374 -472
597 -1002 678 -1608 24 -178 24 -608 0 -786 -81 -606 -304 -1136 -678 -1608
-105 -134 -374 -403 -508 -508 -472 -374 -1002 -597 -1608 -678 -178 -24 -608
-24 -786 0 -605 81 -1137 305 -1608 678 -134 105 -403 374 -508 508 -374 472
-597 1002 -678 1608 -24 178 -24 608 0 785 81 608 304 1136 677 1609 106 134
375 403 509 509 520 410 1087 631 1781 694 98 9 501 -3 618 -18z"/>
<path d="M2369 5668 c-1 -2 -108 -977 -238 -2168 l-237 -2165 803 -3 c442 -1
1164 -1 1606 0 l803 3 -237 2165 c-130 1191 -237 2166 -238 2168 -1 1 -509 2
-1131 2 -621 0 -1130 -1 -1131 -2z m2142 -130 c0 -2 100 -919 223 -2038 l222
-2035 -728 -3 c-400 -1 -1056 -1 -1456 0 l-728 3 222 2035 c123 1119 223 2036
223 2038 1 3 2021 3 2022 0z"/>
<path d="M3410 5264 c-46 -9 -144 -47 -180 -69 -178 -114 -202 -328 -54 -465
98 -90 256 -134 402 -112 203 32 342 162 342 321 -1 182 -165 317 -395 326
-49 2 -101 2 -115 -1z m168 -139 c59 -8 132 -46 170 -89 77 -88 38 -198 -93
-258 -70 -32 -237 -33 -306 -2 -174 81 -182 236 -17 320 48 24 143 44 183 38
11 -1 39 -5 63 -9z"/>
<path d="M2935 3844 c-66 -60 -163 -124 -280 -186 -92 -48 -115 -69 -115 -103
0 -9 40 -55 88 -104 53 -52 111 -124 146 -178 51 -81 73 -102 108 -103 4 0 44
32 90 71 97 82 182 141 290 199 43 23 80 46 83 51 3 4 8 24 10 43 5 34 1 39
-120 146 -69 62 -125 115 -125 118 0 4 -17 26 -39 50 -50 54 -72 54 -136 -4z
m235 -294 c0 -3 -26 -21 -57 -39 -69 -41 -157 -104 -195 -139 -15 -14 -29 -24
-31 -21 -27 40 -121 160 -136 173 -21 19 -20 19 52 61 39 24 99 63 132 87 l60
44 88 -80 c48 -44 87 -83 87 -86z"/>
<path d="M3928 2843 c-8 -10 -33 -57 -56 -106 -52 -110 -115 -208 -181 -281
-60 -66 -67 -102 -25 -135 15 -12 33 -21 42 -21 28 0 197 -72 284 -121 47 -27
112 -70 144 -94 64 -50 91 -55 121 -22 20 22 264 437 276 470 15 40 -12 64
-106 97 -114 40 -226 96 -343 171 -95 61 -131 71 -156 42z m197 -225 c33 -18
98 -51 145 -72 47 -21 87 -40 88 -41 2 -2 -33 -67 -78 -144 -75 -130 -99 -157
-115 -132 -9 16 -176 108 -255 142 -41 17 -76 32 -78 34 -1 1 22 38 51 81 30
44 69 107 86 142 l32 63 32 -20 c18 -11 59 -34 92 -53z"/>
</g>
</svg>
